<?xml version="1.0" standalone="no"?>
<!DOCTYPE svg PUBLIC "-//W3C//DTD SVG 20010904//EN"
 "http://www.w3.org/TR/2001/REC-SVG-20010904/DTD/svg10.dtd">
<svg version="1.0" xmlns="http://www.w3.org/2000/svg"
 width="386.000000pt" height="383.000000pt" viewBox="0 0 386.000000 383.000000"
 preserveAspectRatio="xMidYMid meet">

<g transform="translate(0.000000,383.000000) scale(0.100000,-0.100000)"
fill="#000000" stroke="none">
<path d="M1736 3519 c2 -4 -17 -6 -44 -5 -26 1 -50 -2 -54 -7 -3 -6 -28 -10
-55 -10 -34 1 -42 -2 -28 -7 17 -7 16 -9 -10 -10 -16 -2 -36 -2 -42 -1 -14 2
-17 -20 -5 -35 4 -5 3 -6 -2 -1 -6 4 -17 7 -26 7 -13 0 -13 -1 0 -10 9 -6 10
-10 3 -10 -19 0 -27 21 -12 31 10 7 9 8 -6 6 -11 -1 -26 -6 -32 -10 -7 -5 -13
-6 -13 -2 0 3 -14 -2 -30 -10 -17 -9 -28 -19 -26 -24 3 -4 -8 -7 -23 -6 -22 1
-28 -2 -23 -13 3 -9 1 -13 -5 -9 -14 9 -83 -20 -83 -35 0 -6 -3 -8 -7 -5 -3 4
-12 -1 -20 -11 -8 -9 -11 -11 -7 -3 4 9 3 12 -4 7 -6 -4 -8 -14 -5 -24 6 -15
4 -15 -10 -4 -14 12 -16 11 -14 -7 1 -13 8 -21 20 -21 21 0 18 -22 -4 -28 -11
-3 -11 -1 1 8 12 9 10 11 -11 6 -19 -4 -29 -1 -33 10 -3 8 -2 12 3 9 5 -3 12
-1 16 5 3 5 -1 10 -10 10 -8 0 -18 -7 -21 -15 -4 -8 -10 -12 -15 -9 -9 5 -14
-16 -10 -50 1 -16 -1 -17 -16 -5 -15 12 -16 12 -10 -3 4 -12 1 -18 -9 -18 -9
0 -13 -5 -9 -12 4 -7 0 -5 -8 5 -15 17 -33 24 -23 8 6 -8 -18 -23 -39 -25 -5
-1 -10 -5 -10 -11 0 -19 -16 -35 -27 -29 -7 4 -8 2 -4 -5 4 -6 0 -14 -8 -17
-9 -3 -14 -10 -11 -14 8 -13 -25 -41 -38 -34 -8 5 -9 4 -2 -3 17 -17 63 -24
68 -10 4 7 6 8 6 1 1 -6 -6 -17 -14 -24 -9 -7 -15 -8 -15 -2 0 5 -13 12 -29
14 -24 3 -28 1 -26 -14 2 -10 -1 -17 -7 -15 -6 1 -13 -4 -15 -12 -4 -10 1 -11
18 -6 19 5 21 4 9 -4 -10 -7 -11 -11 -2 -11 6 0 12 -5 12 -11 0 -5 -5 -7 -12
-3 -7 5 -9 2 -6 -7 4 -10 -1 -15 -12 -16 -13 -1 -17 5 -15 23 3 28 -1 30 -21
10 -11 -11 -11 -16 -1 -19 7 -3 5 -6 -5 -6 -10 -1 -18 -8 -18 -16 0 -8 -6 -15
-12 -15 -9 0 -8 -3 2 -10 9 -5 19 -5 26 1 8 7 15 6 19 -1 4 -7 -2 -14 -14 -17
-16 -4 -20 -11 -16 -27 2 -11 2 -15 -1 -8 -8 18 -24 4 -24 -22 0 -35 -12 -39
-27 -9 l-13 28 5 -28 c4 -17 2 -26 -4 -23 -5 4 -12 2 -16 -4 -3 -5 -1 -10 6
-10 7 0 2 -11 -10 -24 -13 -14 -20 -29 -16 -35 12 -21 16 -61 5 -61 -6 0 -8
-5 -5 -10 4 -6 12 -7 18 -3 9 5 9 3 0 -8 -7 -9 -11 -25 -9 -36 2 -11 0 -26 -5
-34 -6 -10 -9 -7 -9 13 0 20 -4 26 -15 22 -8 -4 -15 -1 -15 6 0 6 4 9 9 5 5
-3 12 -1 16 5 3 5 0 10 -7 10 -10 0 -10 2 0 9 8 4 13 11 13 15 -1 3 -1 7 0 9
6 20 5 38 -2 43 -5 3 -9 2 -8 -3 4 -24 -2 -43 -13 -37 -7 4 -8 3 -4 -5 4 -6 3
-17 -2 -24 -18 -24 -21 -60 -6 -83 15 -22 14 -23 -3 -20 -16 4 -19 -1 -15 -26
3 -21 1 -29 -6 -24 -7 4 -9 -1 -6 -16 10 -43 11 -73 3 -128 l-8 -55 3 57 c2
34 -1 55 -7 51 -13 -8 1 -173 16 -192 9 -12 9 -13 0 -7 -9 5 -13 0 -13 -14 0
-12 3 -19 8 -17 4 3 8 -14 9 -36 4 -77 8 -97 20 -97 18 0 45 -43 32 -51 -8 -5
-8 -8 0 -13 6 -4 11 -13 11 -19 0 -8 -3 -8 -9 2 -5 8 -11 9 -15 3 -3 -6 -2
-13 3 -17 6 -3 8 -12 5 -19 -3 -8 0 -17 7 -22 8 -5 11 -2 7 7 -3 8 1 24 9 34
13 19 14 18 8 -12 -4 -25 -2 -33 10 -33 8 0 15 -4 15 -9 0 -5 -9 -7 -20 -4
-12 3 -20 0 -20 -6 0 -7 6 -9 13 -5 9 5 9 4 0 -6 -10 -10 -8 -19 7 -40 11 -15
16 -31 12 -35 -4 -5 0 -6 10 -2 18 6 57 -17 46 -29 -4 -4 -2 -14 5 -23 11 -14
10 -14 -5 -2 -16 11 -18 11 -18 -2 0 -8 7 -17 15 -21 8 -3 13 -11 10 -18 -6
-19 21 -52 36 -42 7 4 10 3 6 -4 -4 -5 -4 -17 -1 -26 5 -12 10 -13 25 -6 14 8
20 6 28 -8 7 -13 7 -22 -1 -30 -9 -9 -9 -12 1 -12 7 0 9 -5 6 -10 -3 -6 26
-40 65 -77 87 -82 107 -96 115 -83 3 5 -1 10 -9 10 -8 0 -18 9 -21 20 -4 11
-11 17 -17 14 -7 -4 -7 0 0 12 5 11 7 26 5 34 -3 8 3 5 12 -8 9 -13 14 -30 11
-38 -4 -10 4 -18 24 -26 17 -5 31 -14 31 -19 1 -5 2 -17 3 -27 2 -28 24 -50
54 -54 15 -2 27 -8 27 -15 0 -6 3 -14 8 -17 4 -3 5 -3 2 1 -3 3 3 12 13 20 16
14 16 14 0 9 -25 -7 -22 1 3 15 12 6 19 7 16 2 -3 -5 1 -22 9 -38 l15 -29 -22
20 c-15 13 -20 14 -17 4 2 -8 23 -24 47 -37 35 -18 43 -19 48 -7 3 7 13 14 22
14 14 -1 14 -2 -1 -11 -10 -5 -18 -15 -18 -20 0 -6 5 -7 10 -4 5 3 10 1 10 -5
0 -6 5 -8 10 -5 6 4 8 10 5 15 -3 4 3 14 13 21 15 13 16 12 3 -3 -11 -15 -11
-18 0 -18 12 0 12 -2 0 -9 -9 -6 -10 -11 -2 -15 6 -4 11 -5 11 -1 0 3 18 -4
40 -15 23 -11 45 -18 50 -15 6 3 10 1 10 -5 0 -6 10 -8 25 -4 17 4 25 2 25 -7
0 -7 3 -10 6 -6 3 3 17 2 30 -3 18 -7 24 -6 24 4 0 9 -7 12 -19 9 -10 -3 -21
-1 -24 4 -3 5 9 7 26 5 18 -2 42 -4 54 -5 23 -2 19 -12 -7 -20 -8 -2 -2 -3 13
-1 20 3 26 0 21 -9 -5 -7 0 -5 11 3 10 8 16 10 12 4 -4 -7 2 -14 13 -17 11 -3
22 -1 25 4 3 4 52 7 109 6 57 -1 102 -6 99 -10 -6 -10 48 3 63 14 6 5 13 7 16
4 2 -3 5 2 5 10 0 19 -2 19 -21 0 -13 -14 -15 -13 -13 3 1 16 9 19 49 18 26
-1 51 -5 54 -9 4 -4 -6 -5 -23 -4 -19 3 -30 -1 -30 -9 0 -14 44 -9 63 7 8 7
14 6 17 -3 4 -9 6 -10 6 -1 1 7 8 10 18 6 10 -4 14 -2 10 4 -4 5 14 3 38 -5
40 -13 61 -32 35 -32 -5 0 -10 4 -10 9 0 6 -9 9 -19 8 -15 -1 -17 -6 -11 -22
4 -11 15 -19 24 -17 9 2 16 -4 16 -13 0 -9 -4 -13 -10 -10 -5 3 -10 2 -10 -4
0 -5 9 -13 21 -16 19 -6 45 -52 35 -63 -3 -2 -8 7 -12 22 -3 14 -10 26 -15 26
-13 0 -11 -12 6 -34 8 -10 12 -23 8 -29 -4 -6 -1 -7 7 -2 8 5 11 3 8 -6 -3 -8
3 -26 13 -40 10 -14 15 -30 11 -34 -4 -5 -1 -5 6 -1 7 4 9 13 5 19 -4 7 0 6
10 -2 13 -11 17 -11 17 -1 0 8 2 11 5 8 9 -8 -6 -38 -16 -32 -5 3 -9 -4 -9
-15 0 -11 5 -23 12 -27 8 -5 9 -2 5 10 -4 10 -3 15 3 11 6 -3 7 -17 4 -31 -5
-18 -3 -24 7 -22 9 2 14 -7 14 -27 0 -17 5 -29 11 -28 7 1 10 -6 7 -16 -3 -10
0 -22 6 -25 7 -4 9 -1 5 8 -3 8 3 19 14 25 23 12 24 1 4 -36 -17 -30 -15 -41
3 -17 14 18 14 17 5 -8 -9 -26 -6 -32 12 -29 4 0 5 -6 2 -14 -4 -9 -1 -22 6
-30 10 -12 16 -13 29 -3 9 7 13 9 9 4 -4 -4 2 -18 13 -29 16 -17 19 -31 15
-68 -4 -37 -1 -51 15 -70 20 -23 59 -34 59 -16 0 5 -9 7 -20 4 -11 -3 -20 -1
-20 5 0 5 10 8 22 6 18 -2 23 -10 24 -36 1 -18 -2 -35 -7 -38 -5 -3 -7 1 -4 8
7 18 -15 48 -22 30 -2 -6 -10 -10 -16 -6 -7 3 -4 -1 6 -9 10 -9 18 -19 18 -24
-1 -4 5 -15 12 -24 8 -8 13 -23 11 -32 -1 -9 1 -17 5 -17 4 0 15 -15 25 -32
12 -24 13 -27 2 -14 -9 11 -16 16 -16 10 0 -17 15 -31 38 -38 12 -4 20 -12 17
-17 -4 -5 -2 -9 4 -9 5 0 12 6 14 13 3 6 6 2 6 -10 1 -17 -3 -20 -20 -16 -21
6 -21 6 2 -21 24 -28 40 -37 18 -9 -13 15 -12 15 9 4 12 -7 20 -16 17 -21 -3
-6 1 -7 9 -4 9 3 16 2 16 -3 0 -10 97 -10 128 1 12 4 22 12 22 17 0 6 -5 7
-12 3 -7 -4 -8 -3 -4 5 7 11 -11 10 -64 -5 -9 -2 -7 2 5 11 11 9 25 13 32 11
7 -3 15 0 19 6 4 6 3 8 -4 4 -6 -3 -14 -1 -18 6 -4 7 -4 10 1 6 4 -4 15 -2 23
5 11 8 14 8 9 0 -7 -12 17 -43 33 -43 12 0 31 36 23 43 -9 10 -12 58 -3 52 5
-3 7 -11 4 -19 -3 -7 1 -13 9 -13 14 0 17 9 18 65 1 24 -7 40 -30 62 -19 18
-25 30 -16 30 20 0 27 16 12 32 -16 17 -40 68 -42 90 -3 26 -11 30 -25 13 -11
-13 -10 -14 6 -8 17 6 17 5 5 -10 -16 -20 -21 -17 -25 10 -2 10 4 24 13 31 15
12 15 13 0 9 -13 -4 -15 -1 -11 15 4 16 2 19 -8 13 -10 -6 -12 -4 -7 8 3 9 2
19 -4 23 -6 3 -8 12 -6 18 7 17 -10 43 -20 33 -4 -5 -1 -12 7 -17 11 -7 12
-10 2 -10 -7 0 -10 -5 -6 -11 4 -7 1 -10 -7 -7 -14 5 -14 9 -4 63 6 29 6 29
-9 11 -18 -22 -21 -14 -6 13 7 14 3 26 -15 51 -13 18 -22 37 -19 41 3 5 0 17
-6 26 -10 16 -10 15 -5 -4 3 -12 0 -25 -7 -29 -19 -12 -39 -14 -32 -3 3 5 12
9 21 9 10 0 13 6 9 16 -3 9 -6 18 -6 20 0 3 -6 2 -12 -2 -7 -4 -10 -4 -6 1 4
4 0 14 -8 22 -8 9 -12 18 -9 21 3 4 11 0 16 -8 9 -12 10 -12 5 3 -3 10 -6 21
-6 23 0 3 -4 2 -10 -1 -5 -3 -10 -1 -10 4 0 6 5 11 11 11 8 0 9 4 0 13 -6 8
-7 17 -3 22 4 4 -4 5 -18 1 -14 -3 -19 -3 -12 0 17 8 15 31 -3 38 -8 3 -15 1
-15 -3 0 -5 6 -12 13 -14 9 -4 9 -6 -1 -6 -19 -1 -27 29 -11 41 11 7 9 9 -8 5
-15 -3 -20 -1 -16 9 2 7 10 12 16 10 7 -1 9 -1 4 1 -4 3 -4 10 -1 15 4 7 2 8
-4 4 -8 -5 -12 2 -12 19 0 18 -6 29 -20 32 -10 3 -22 14 -26 25 -3 11 -12 17
-20 14 -8 -3 -14 -1 -14 4 0 18 30 10 42 -10 7 -11 17 -20 22 -20 10 0 -21 50
-43 68 -9 8 -10 10 -3 7 12 -6 12 -3 1 16 -7 13 -12 29 -11 36 1 6 -3 15 -9
19 -7 4 -9 3 -6 -4 10 -15 -1 -39 -18 -39 -8 0 -15 4 -15 9 0 4 6 8 14 8 10 0
13 9 11 28 -2 15 -4 30 -4 35 -1 4 -8 7 -16 7 -8 0 -15 9 -15 19 0 15 5 18 22
13 16 -4 19 -2 13 8 -6 10 -4 12 10 6 15 -5 16 -4 6 8 -10 11 -8 16 6 25 17 9
17 10 1 16 -23 9 -23 24 -1 21 22 -4 25 -34 5 -45 -14 -8 -14 -10 5 -8 12 0
21 6 20 12 -1 5 4 9 11 7 8 -1 11 2 7 8 -3 5 1 10 9 10 16 0 20 10 17 42 -1
10 3 18 9 18 6 0 8 -4 5 -10 -3 -5 -1 -10 5 -10 6 0 8 -5 4 -12 -5 -9 -3 -9 9
1 9 7 14 17 11 22 -3 5 2 9 11 9 8 0 20 11 27 25 6 13 14 22 18 20 4 -3 13 2
20 10 7 8 9 15 5 15 -3 0 7 11 24 25 20 17 28 31 24 42 -5 12 -3 14 7 8 8 -5
11 -4 7 3 -4 5 8 25 26 44 33 34 85 114 67 103 -5 -3 -10 -1 -10 4 0 6 7 11
16 11 8 0 12 5 9 11 -4 6 1 17 11 25 11 9 12 12 4 8 -12 -6 -13 -4 -2 7 15 16
16 33 0 23 -7 -5 -8 -3 -4 5 5 7 15 10 23 7 8 -3 11 -2 8 3 -3 5 -1 12 5 16 6
4 8 11 4 16 -3 5 -10 7 -15 4 -5 -4 -9 3 -9 13 0 12 9 22 24 26 17 4 23 13 24
33 0 47 2 54 11 49 5 -3 12 1 15 10 3 8 2 12 -4 9 -14 -9 -12 8 3 24 6 8 7 11
1 8 -6 -3 -11 0 -11 8 0 8 4 12 8 10 4 -3 10 2 13 11 11 28 6 38 -9 18 -14
-18 -14 -18 -8 4 3 12 9 22 14 22 11 0 8 69 -3 76 -4 3 -8 13 -7 22 0 14 2 13
9 -3 7 -15 9 -10 9 23 1 24 4 41 9 39 4 -3 7 21 7 53 0 47 -3 56 -15 52 -13
-5 -13 -4 0 13 8 10 10 16 4 12 -19 -11 -25 21 -7 38 13 13 13 19 3 28 -9 8
-11 8 -7 1 4 -7 1 -14 -6 -17 -8 -3 -12 8 -13 34 -1 22 3 39 8 39 5 0 6 -5 2
-12 -4 -7 -3 -8 5 -4 8 6 9 12 2 20 -6 7 -8 16 -4 19 6 7 -15 56 -28 67 -4 3
-10 16 -14 29 -5 18 -4 22 6 17 8 -4 5 0 -6 9 -11 9 -19 24 -17 33 2 14 1 14
-9 -2 -9 -14 -8 -20 2 -27 7 -4 10 -12 5 -16 -5 -4 -11 -2 -13 5 -3 6 -8 10
-11 8 -4 -2 -7 6 -7 19 0 13 3 21 8 18 4 -2 7 2 7 11 0 8 6 17 13 19 9 4 9 6
0 6 -7 1 -10 8 -6 18 5 12 3 14 -7 8 -10 -6 -12 -4 -7 8 3 10 3 17 -2 17 -7 0
-19 25 -25 52 0 3 -5 10 -10 15 -5 5 -6 3 -2 -4 4 -7 2 -13 -3 -13 -6 0 -14 0
-18 0 -5 0 -9 9 -9 20 -1 11 -4 23 -8 27 -3 3 -1 12 6 20 9 11 7 12 -8 6 -17
-6 -17 -5 -5 10 11 14 11 17 -1 17 -8 0 -19 -5 -25 -11 -7 -7 -9 -3 -6 15 3
16 10 23 17 19 9 -5 -10 19 -51 64 -6 7 -18 13 -25 13 -10 0 -9 3 2 10 13 8
11 11 -7 16 -13 4 -21 10 -18 14 3 4 -16 26 -41 49 -37 33 -49 39 -60 30 -11
-9 -14 -8 -14 2 0 11 -3 11 -11 -1 -9 -13 -10 -13 -6 0 2 8 11 14 21 12 9 -2
16 2 16 8 0 10 -15 14 -35 10 -5 -1 -7 2 -2 6 8 9 -31 54 -47 54 -6 0 -4 -5 4
-10 8 -5 10 -10 4 -10 -5 0 -19 7 -30 16 -10 8 -12 12 -4 8 8 -4 0 7 -19 25
-36 33 -47 39 -35 19 5 -8 2 -9 -10 -5 -12 5 -16 3 -13 -5 2 -7 12 -12 21 -12
9 1 16 -2 16 -7 0 -14 -26 -10 -40 6 -10 12 -10 18 -1 29 10 12 8 17 -10 26
-17 10 -20 9 -14 -2 6 -10 5 -11 -6 0 -17 15 -46 16 -51 0 -3 -9 -6 -9 -12 0
-4 7 -3 12 3 12 20 0 -1 31 -32 46 -24 13 -31 14 -39 2 -7 -10 -11 -9 -23 6
-8 11 -15 16 -15 10 0 -5 -5 -2 -10 6 -6 10 -10 11 -10 3 0 -7 -4 -13 -10 -13
-5 0 -6 8 -3 18 6 14 4 15 -8 5 -19 -15 -56 -21 -55 -8 1 5 10 9 21 8 l20 -3
-20 9 c-11 5 -23 7 -27 4 -5 -2 -8 1 -8 8 0 7 -3 10 -6 6 -4 -3 -23 0 -43 8
l-36 15 24 -20 c13 -11 20 -24 16 -28 -4 -4 -10 -1 -12 6 -3 6 -11 12 -18 12
-7 0 -16 -6 -19 -12 -3 -7 -3 -3 0 10 4 16 1 22 -10 22 -9 0 -16 4 -16 9 0 5
-17 8 -37 6 -21 -1 -46 2 -57 7 -14 8 -17 7 -11 -3 5 -8 4 -10 -4 -5 -15 9
-141 13 -135 5z m-196 -53 c0 -3 -4 -8 -10 -11 -5 -3 -10 -1 -10 4 0 6 5 11
10 11 6 0 10 -2 10 -4z m53 -13 c-7 -2 -19 -2 -25 0 -7 3 -2 5 12 5 14 0 19
-2 13 -5z m-183 -13 c0 -5 -5 -10 -11 -10 -5 0 -7 5 -4 10 3 6 8 10 11 10 2 0
4 -4 4 -10z m870 -30 c-8 -5 -22 -9 -30 -9 -10 0 -8 3 5 9 27 12 43 12 25 0z
m-922 -27 c2 -7 -4 -13 -15 -13 -14 0 -15 2 -4 9 11 7 10 10 -5 14 -18 6 -18
6 0 4 11 -1 21 -8 24 -14z m-59 -11 c8 -15 4 -17 -29 -17 -21 0 -36 3 -33 8 3
5 11 6 18 3 7 -2 16 2 19 10 7 19 13 18 25 -4z m856 8 c3 -5 -3 -10 -14 -10
-12 0 -21 5 -21 10 0 6 6 10 14 10 8 0 18 -4 21 -10z m125 -20 c-8 -5 -22 -10
-30 -10 -13 0 -13 1 0 10 8 5 22 10 30 10 13 0 13 -1 0 -10z m155 -80 c3 -6
-1 -7 -9 -4 -18 7 -21 14 -7 14 6 0 13 -4 16 -10z m-1322 -25 c-3 -9 -8 -14
-10 -11 -3 3 -2 9 2 15 9 16 15 13 8 -4z m167 5 c0 -5 -7 -10 -16 -10 -8 0
-12 5 -9 10 3 6 10 10 16 10 5 0 9 -4 9 -10z m-166 -54 c-3 -9 -10 -13 -15
-10 -5 3 -3 11 4 19 15 16 19 13 11 -9z m422 -33 c-3 -7 0 -13 6 -13 6 0 8 -3
5 -6 -7 -7 -37 14 -37 26 0 3 7 7 15 7 9 0 14 -6 11 -14z m43 0 c-12 -15 -12
-16 3 -10 10 3 20 2 23 -3 3 -5 12 -7 20 -4 8 4 12 10 9 15 -3 5 -9 7 -14 4
-5 -3 -11 -1 -14 4 -9 13 19 8 38 -8 13 -11 18 -10 31 3 12 12 21 13 35 6 23
-12 33 -13 26 -1 -3 4 21 9 54 10 32 1 61 -3 64 -8 3 -5 14 -7 24 -5 9 3 37
-2 61 -10 44 -16 61 -14 61 7 0 8 -3 8 -9 -1 -7 -11 -14 -11 -42 1 l-34 14 53
-1 c28 -1 52 -4 52 -8 0 -5 8 -8 18 -8 14 0 15 2 2 10 -17 11 -9 13 15 4 12
-5 13 -9 4 -14 -8 -6 -5 -11 11 -20 18 -10 24 -9 31 1 6 10 8 6 7 -11 -2 -19
1 -24 16 -22 10 2 16 -1 13 -5 -3 -5 14 -15 39 -22 26 -8 41 -17 37 -24 -4 -6
-1 -7 7 -2 7 4 16 2 21 -6 5 -8 9 -9 9 -3 0 6 -7 17 -15 24 -18 15 -20 30 -3
30 6 0 8 -3 5 -7 -4 -3 2 -13 13 -20 11 -8 19 -21 18 -30 -2 -8 5 -20 16 -27
10 -6 35 -25 54 -43 20 -17 40 -30 44 -27 4 3 8 -1 8 -9 0 -7 13 -23 29 -35
27 -20 31 -20 45 -6 9 8 16 20 16 25 0 6 -7 3 -16 -5 -8 -9 -18 -16 -22 -16
-4 0 3 10 15 21 22 22 43 19 43 -7 0 -8 -7 -17 -15 -20 -8 -4 -15 -13 -15 -21
0 -8 -5 -11 -12 -7 -7 4 -8 3 -4 -5 4 -6 11 -9 16 -6 5 3 11 1 15 -5 3 -5 1
-10 -5 -10 -7 0 -6 -5 2 -14 9 -9 15 -10 20 -3 9 15 45 16 45 1 0 -7 -7 -10
-15 -6 -11 4 -13 1 -7 -8 5 -9 4 -11 -3 -6 -7 4 -12 1 -12 -7 0 -15 27 -32 43
-28 5 1 6 -3 2 -9 -3 -6 -11 -8 -16 -4 -5 3 -1 -11 8 -30 12 -24 24 -35 34
-33 9 3 16 -2 16 -9 0 -7 -5 -10 -11 -7 -6 3 -5 0 2 -8 6 -7 12 -17 12 -22 0
-4 -6 -5 -12 -1 -7 4 -5 -2 5 -13 9 -11 17 -25 17 -31 0 -6 5 -14 12 -18 7 -5
8 -2 3 7 -5 8 -4 10 0 6 13 -11 15 -37 3 -37 -6 0 -4 -7 3 -17 12 -15 12 -16
-1 -8 -12 7 -12 4 2 -17 9 -14 19 -37 20 -52 2 -14 7 -28 11 -32 11 -11 8 -26
-4 -19 -10 7 -4 -69 8 -88 2 -4 -1 -15 -9 -24 -11 -14 -11 -16 1 -9 10 6 12 4
8 -10 -10 -32 -17 -68 -21 -99 -1 -16 -8 -47 -15 -68 -11 -31 -10 -41 1 -54 9
-12 9 -15 1 -9 -13 7 -17 -4 -14 -31 1 -7 -3 -13 -9 -13 -5 0 -10 -9 -10 -20
0 -11 5 -20 11 -20 5 0 7 -5 4 -11 -4 -6 1 -16 11 -23 9 -7 14 -18 10 -24 -9
-16 -36 -3 -29 14 3 8 0 14 -6 14 -6 0 -8 6 -5 14 3 8 0 17 -7 22 -8 5 -10 3
-5 -5 5 -7 0 -19 -10 -27 -17 -14 -17 -15 -1 -10 9 3 17 1 17 -4 0 -6 -9 -10
-19 -10 -21 0 -29 -14 -26 -47 1 -18 -1 -20 -12 -12 -10 9 -13 8 -13 -3 0 -8
-9 -23 -20 -33 -12 -10 -18 -25 -15 -32 3 -9 0 -11 -7 -7 -8 5 -9 2 -5 -9 3
-10 2 -17 -3 -17 -6 0 -10 6 -10 13 -1 16 -23 -22 -27 -45 -4 -24 6 -23 15 1
6 16 9 17 20 5 11 -12 10 -14 -3 -14 -8 0 -15 -4 -15 -9 0 -6 -8 -10 -17 -10
-41 -1 -52 -5 -57 -18 -3 -7 -13 -13 -23 -13 -14 0 -15 -2 -4 -9 16 -10 6 -31
-15 -31 -9 0 -12 5 -8 12 4 7 3 8 -5 4 -6 -4 -9 -11 -6 -16 3 -5 1 -11 -5 -15
-5 -3 -10 -1 -10 5 0 6 -5 8 -10 5 -16 -10 -2 -25 23 -25 18 0 19 -2 7 -10
-10 -6 -20 -4 -31 6 -20 18 -33 18 -26 0 4 -10 0 -13 -14 -11 -16 3 -19 0 -15
-12 5 -13 4 -14 -9 -3 -13 11 -14 10 -8 -6 6 -17 5 -17 -10 -5 -15 11 -17 11
-17 -2 0 -8 6 -18 13 -20 9 -4 9 -6 0 -6 -6 -1 -15 4 -18 9 -3 6 -11 10 -18
10 -8 0 -8 -3 1 -12 7 -7 12 -15 12 -19 0 -13 -27 -17 -41 -7 -11 8 -11 9 3 4
10 -3 20 -1 23 3 8 14 -39 18 -69 6 -21 -9 -25 -14 -15 -19 8 -3 2 -4 -13 -1
-16 3 -28 1 -28 -5 0 -5 -9 -10 -20 -10 -11 0 -20 -6 -20 -12 0 -10 -2 -10 -8
-1 -5 8 -11 8 -24 -1 -20 -15 -8 -43 13 -31 11 6 11 5 3 -4 -11 -12 -35 -15
-66 -9 -30 7 -33 18 -5 16 15 -1 27 -7 27 -12 0 -5 3 -7 6 -4 12 13 -17 48
-39 47 -22 -1 -22 -1 1 -7 13 -4 -39 -7 -115 -6 -163 1 -166 1 -159 13 4 5
-13 12 -36 16 -24 4 -49 12 -56 18 -7 5 -15 7 -18 4 -3 -3 -25 5 -49 17 -26
14 -48 20 -56 15 -14 -9 -39 7 -39 24 0 7 4 7 12 -1 7 -7 16 -12 22 -12 5 0 1
6 -9 14 -11 8 -25 11 -32 9 -8 -3 -13 0 -11 7 2 7 -6 14 -17 16 -11 1 -25 10
-31 18 -13 19 -28 21 -18 4 4 -8 3 -10 -2 -5 -5 5 -9 14 -9 20 -1 7 -6 11 -13
10 -7 -2 -12 2 -12 8 0 6 -7 8 -16 5 -15 -6 -15 -4 -3 10 13 16 12 16 -11 4
-22 -12 -24 -12 -12 2 7 9 9 18 5 20 -5 1 -19 18 -33 37 -21 30 -24 32 -36 17
-9 -14 -14 -14 -20 -4 -14 22 -12 46 3 41 11 -4 11 -8 1 -22 -12 -14 -11 -15
5 -2 17 14 17 16 -10 37 -15 13 -24 23 -19 24 5 0 3 7 -4 15 -7 8 -16 12 -21
9 -5 -3 -6 2 -3 10 4 10 1 16 -8 16 -10 0 -14 -9 -11 -32 2 -18 0 -27 -3 -19
-5 10 -8 10 -14 2 -4 -7 -7 1 -8 18 0 17 4 31 11 31 8 0 8 3 -1 12 -8 8 -8 17
-1 30 7 14 7 18 -3 16 -8 -2 -14 9 -16 25 -2 15 -7 25 -12 22 -5 -3 -9 3 -9
12 -1 36 -4 52 -10 49 -3 -1 -14 5 -23 16 -19 19 -10 26 10 6 9 -9 9 -4 2 23
-6 18 -10 35 -10 37 0 2 -6 0 -12 -4 -10 -6 -10 -5 -1 7 9 11 10 25 4 45 -7
25 -8 259 -1 274 1 3 1 10 0 15 -10 46 -10 59 0 45 5 -8 10 -10 11 -5 1 6 2
15 3 20 0 6 7 21 15 35 12 23 11 23 -12 -3 -23 -25 -26 -26 -24 -9 0 12 5 18
9 16 4 -3 8 0 8 5 0 6 -5 11 -11 11 -5 0 -7 5 -3 12 6 9 9 9 11 1 3 -7 10 -10
17 -7 10 4 11 16 5 50 -5 25 -11 50 -14 55 -4 5 -4 9 -1 9 3 0 13 -17 22 -37
l16 -38 10 25 c6 14 11 41 12 60 2 25 7 35 19 35 8 0 19 4 24 9 5 5 2 6 -7 2
-13 -6 -13 -5 0 6 21 17 65 80 65 93 1 6 7 9 14 7 7 -1 10 2 7 7 -4 5 3 13 15
16 17 6 19 9 8 16 -11 7 -10 11 6 24 11 9 14 13 6 9 -10 -5 -12 -3 -6 5 5 9
11 9 17 3 11 -11 38 -5 38 8 0 4 -7 10 -14 13 -11 4 -13 1 -9 -11 8 -22 -1
-13 -16 16 -12 22 -11 23 8 12 12 -6 21 -7 21 -1 0 5 -6 11 -12 14 -7 2 -1 4
15 4 21 0 25 -2 17 -12 -17 -21 3 -25 27 -5 21 16 21 30 1 30 -5 0 -6 -6 -2
-12 5 -8 1 -8 -12 2 -10 8 -21 16 -23 17 -3 2 12 1 33 -1 32 -5 39 -2 43 14 3
11 12 20 20 20 13 0 13 -3 2 -17 -13 -17 -13 -17 6 -3 11 8 23 19 26 23 3 5
12 10 20 11 28 6 54 20 71 39 10 11 24 17 33 13 8 -3 15 -2 15 3 0 5 10 7 23
7 34 -3 40 4 20 27 -10 11 -13 17 -6 14 6 -4 14 -3 18 3 3 5 9 10 12 10 3 0
-1 -8 -8 -17z m-549 -3 c0 -5 -4 -10 -10 -10 -5 0 -10 5 -10 10 0 6 5 10 10
10 6 0 10 -4 10 -10z m460 -10 c0 -5 -5 -10 -11 -10 -5 0 -7 5 -4 10 3 6 8 10
11 10 2 0 4 -4 4 -10z m-34 -27 c-10 -10 -19 5 -10 18 6 11 8 11 12 0 2 -7 1
-15 -2 -18z m694 17 c0 -5 -5 -10 -11 -10 -5 0 -7 5 -4 10 3 6 8 10 11 10 2 0
4 -4 4 -10z m520 -15 c14 -19 14 -19 -4 -5 -18 14 -19 13 -13 -2 3 -10 2 -20
-2 -22 -7 -5 -8 9 -2 48 0 5 2 7 4 5 1 -2 9 -13 17 -24z m-1260 2 c9 -7 15
-18 14 -24 -1 -7 -2 -18 -3 -24 0 -5 -6 -7 -12 -3 -8 4 -7 9 2 15 9 5 6 11
-14 20 -28 13 -36 29 -14 29 6 0 19 -6 27 -13z m-382 -5 c8 8 12 9 12 1 0 -20
-33 -24 -49 -7 -15 15 -14 15 5 6 15 -8 24 -8 32 0z m-71 -24 c2 -16 0 -19 -6
-10 -6 10 -10 8 -14 -9 -4 -13 -9 -21 -12 -17 -7 6 15 58 24 58 4 0 8 -10 8
-22z m430 -11 c0 -7 -14 -12 -33 -13 -18 0 -31 3 -27 8 3 6 14 8 24 5 11 -3
19 -1 19 4 0 5 4 9 8 9 5 0 9 -6 9 -13z m818 -5 c-3 -3 -11 0 -18 7 -9 10 -8
11 6 5 10 -3 15 -9 12 -12z m85 -2 c0 -5 -2 -10 -4 -10 -3 0 -8 5 -11 10 -3 6
-1 10 4 10 6 0 11 -4 11 -10z m-976 -19 c3 -5 -1 -14 -9 -21 -13 -10 -15 -9
-15 9 0 21 14 28 24 12z m986 -32 c0 -6 -4 -7 -10 -4 -5 3 -10 11 -10 16 0 6
5 7 10 4 6 -3 10 -11 10 -16z m61 -18 c-15 -10 -3 -20 19 -16 10 2 16 -5 16
-16 0 -11 -6 -19 -13 -19 -7 0 -10 6 -7 14 3 8 -2 13 -13 13 -43 0 -47 3 -27
18 10 8 24 14 29 15 6 0 4 -4 -4 -9z m409 -27 c0 -3 -6 -12 -14 -19 -17 -18
-29 -8 -13 11 12 14 27 18 27 8z m-1634 -52 c-3 -5 6 -15 19 -22 l24 -13 -25
-19 c-13 -11 -21 -25 -17 -31 3 -7 2 -9 -2 -4 -5 4 -19 0 -33 -9 -13 -8 -26
-13 -29 -10 -3 3 2 9 11 12 14 5 15 9 4 15 -9 6 -5 8 12 7 16 -2 24 2 23 10
-2 6 2 11 8 10 6 -2 13 5 14 15 2 12 -1 17 -10 13 -8 -3 -12 2 -10 12 5 23 4
22 11 22 3 0 3 -4 0 -8z m44 2 c0 -8 -19 -13 -24 -6 -3 5 1 9 9 9 8 0 15 -2
15 -3z m1249 -17 c0 -9 -2 -8 -6 1 -2 6 -10 9 -15 6 -7 -4 -8 -2 -4 5 9 13 26
5 25 -12z m96 -17 c3 -5 1 -10 -4 -10 -6 0 -11 5 -11 10 0 6 2 10 4 10 3 0 8
-4 11 -10z m-1474 -93 c-7 -7 -7 -17 0 -31 9 -19 9 -19 -4 -4 -13 16 -15 16
-30 0 -11 -10 -17 -12 -17 -4 0 7 9 21 19 31 11 11 16 22 13 26 -4 3 2 3 11
-1 13 -4 15 -10 8 -17z m-337 -73 c3 -8 2 -12 -4 -9 -6 3 -10 10 -10 16 0 14
7 11 14 -7z m314 -65 c-3 -8 -7 -3 -11 10 -4 17 -3 21 5 13 5 -5 8 -16 6 -23z
m1597 21 c-3 -5 -2 -10 3 -10 6 0 5 -10 -1 -25 -14 -30 -23 -32 -23 -6 0 11 5
17 10 14 5 -4 7 1 3 9 -3 9 -3 19 0 22 10 10 15 7 8 -4z m-1648 -42 c-3 -8 -6
-5 -6 6 -1 11 2 17 5 13 3 -3 4 -12 1 -19z m1717 -14 c7 -17 -6 -18 -22 -2 -7
7 -12 15 -12 20 0 12 28 -2 34 -18z m217 -1 c-12 -20 -14 -14 -5 12 4 9 9 14
11 11 3 -2 0 -13 -6 -23z m-217 -189 c9 -24 2 -26 -12 -4 -7 11 -8 20 -3 20 5
0 12 -7 15 -16z m23 -6 c-3 -8 -6 -5 -6 6 -1 11 2 17 5 13 3 -3 4 -12 1 -19z
m-35 -60 c-8 -8 -9 -4 -5 13 4 13 8 18 11 10 2 -7 -1 -18 -6 -23z m14 -111 c1
-39 1 -40 -8 -14 -8 23 -6 57 4 57 2 0 4 -19 4 -43z m281 11 c-3 -8 -6 -5 -6
6 -1 11 2 17 5 13 3 -3 4 -12 1 -19z m-2340 -30 c-3 -7 -5 -2 -5 12 0 14 2 19
5 13 2 -7 2 -19 0 -25z m2038 -38 c-4 -17 -9 -29 -12 -26 -3 2 -2 19 2 36 4
17 9 29 12 26 3 -2 2 -19 -2 -36z m261 -75 c0 -14 -4 -25 -8 -25 -9 0 -16 23
-10 38 8 21 20 13 18 -13z m-2223 -110 c-3 -9 -8 -14 -10 -11 -3 3 -2 9 2 15
9 16 15 13 8 -4z m287 -10 c11 -13 10 -14 -4 -9 -11 4 -16 2 -14 -6 2 -7 -4
-15 -12 -17 -12 -4 -12 -3 -2 5 8 5 13 12 13 16 -4 29 1 32 19 11z m1905 -45
c3 -5 1 -10 -4 -10 -6 0 -11 5 -11 10 0 6 2 10 4 10 3 0 8 -4 11 -10z m3 -31
c-10 -5 -18 -17 -18 -26 0 -9 -3 -14 -6 -10 -11 11 7 47 24 47 16 -1 15 -2 0
-11z m-1798 -105 c0 -8 -19 -13 -24 -6 -3 5 1 9 9 9 8 0 15 -2 15 -3z m1447
-17 c1 -11 1 -18 0 -16 -2 2 -8 11 -15 20 -9 12 -9 16 1 16 7 0 14 -9 14 -20z
m-1757 -2 c0 -7 -30 -13 -34 -7 -3 4 4 9 15 9 10 1 19 0 19 -2z m2040 -25 c5
8 12 11 16 8 3 -4 -1 -15 -10 -24 -19 -18 -19 -18 -35 16 -12 24 -11 24 4 5
13 -17 17 -18 25 -5z m-1800 -35 c0 -8 -4 -15 -10 -15 -5 0 -10 7 -10 15 0 8
5 15 10 15 6 0 10 -7 10 -15z m1795 -15 c3 -6 -1 -7 -9 -4 -18 7 -21 14 -7 14
6 0 13 -4 16 -10z m-21 -51 c-10 -16 -24 -9 -24 12 0 18 2 19 15 9 8 -7 12
-16 9 -21z m-414 -19 c-24 -15 -37 -11 -16 5 11 8 22 12 25 9 3 -3 -1 -9 -9
-14z m48 7 c8 -10 6 -13 -7 -13 -10 0 -18 6 -18 13 0 7 4 13 7 13 4 0 12 -6
18 -13z m-1573 -27 c3 -5 2 -10 -4 -10 -5 0 -13 5 -16 10 -3 6 -2 10 4 10 5 0
13 -4 16 -10z m1902 -1 c-11 -7 -23 -7 -28 -2 -5 5 3 9 19 11 24 1 25 0 9 -9z
m-382 -8 c3 -5 1 -12 -5 -16 -5 -3 -10 1 -10 9 0 18 6 21 15 7z m351 -27 c-18
-17 -22 -39 -6 -29 18 11 11 -1 -12 -21 -14 -12 -18 -13 -10 -3 6 9 9 18 6 22
-8 8 14 47 27 47 6 0 3 -7 -5 -16z m-1398 -17 c25 -1 1 -10 -32 -13 -29 -1
-33 1 -23 12 7 7 19 11 27 7 8 -3 21 -6 28 -6z m-425 -41 c-4 -17 -3 -18 6 -6
7 9 11 10 11 3 0 -13 -19 -28 -26 -20 -11 11 -11 44 1 44 7 0 10 -9 8 -21z
m1657 20 c0 -3 -4 -8 -10 -11 -5 -3 -10 -1 -10 4 0 6 5 11 10 11 6 0 10 -2 10
-4z m108 -33 l0 -38 -14 28 c-14 27 -12 47 6 47 4 0 8 -17 8 -37z m-1242 -5
c4 -7 3 -8 -4 -4 -7 4 -12 2 -12 -3 0 -6 -5 -11 -11 -11 -8 0 -8 5 1 15 15 18
17 18 26 3z m1219 -18 c0 -22 -21 -22 -22 1 -1 12 3 19 10 16 7 -2 12 -10 12
-17z m-1688 -4 c12 1 20 -3 17 -7 -3 -5 1 -9 9 -9 19 0 30 -27 15 -36 -6 -4
-8 -3 -5 3 6 9 -14 23 -33 25 -15 1 -40 20 -40 31 0 8 3 8 8 2 4 -6 17 -10 29
-9z m523 -9 c0 -7 -49 -1 -56 6 -5 4 0 5 10 1 14 -5 17 -4 11 5 -6 10 -3 11
14 2 11 -7 21 -13 21 -14z m626 15 c-3 -5 5 -20 17 -32 18 -20 18 -23 3 -17
-10 4 -21 7 -26 7 -14 0 -21 33 -8 42 17 10 20 10 14 0z m89 -12 c3 -6 -1 -7
-9 -4 -18 7 -21 14 -7 14 6 0 13 -4 16 -10z m424 -19 c11 -7 10 -11 -6 -20
-22 -11 -33 -6 -33 16 0 15 18 17 39 4z m-569 -21 c0 -5 -5 -10 -11 -10 -5 0
-7 5 -4 10 3 6 8 10 11 10 2 0 4 -4 4 -10z m497 -22 c-3 -7 -5 -2 -5 12 0 14
2 19 5 13 2 -7 2 -19 0 -25z m-1052 12 c3 -5 1 -10 -4 -10 -6 0 -11 5 -11 10
0 6 2 10 4 10 3 0 8 -4 11 -10z m340 -10 c12 -5 -1 -6 -35 -3 -30 3 -57 7 -59
9 -9 8 75 2 94 -6z m-168 -16 c-3 -3 -12 -4 -19 -1 -8 3 -5 6 6 6 11 1 17 -2
13 -5z m70 -10 c-3 -3 -12 -4 -19 -1 -8 3 -5 6 6 6 11 1 17 -2 13 -5z m655
-61 c-3 -16 -7 -22 -10 -15 -4 13 4 42 11 42 2 0 2 -12 -1 -27z m43 17 c3 -5
1 -10 -4 -10 -6 0 -11 5 -11 10 0 6 2 10 4 10 3 0 8 -4 11 -10z m-1192 -57
c-5 -12 -3 -14 8 -8 11 6 12 5 2 -5 -7 -8 -16 -11 -19 -7 -7 6 2 37 10 37 3 0
2 -7 -1 -17z m163 -80 c1 -10 3 -25 6 -33 3 -8 3 -12 1 -7 -3 4 -9 5 -13 2 -7
-4 -8 39 -1 53 3 7 7 0 7 -15z m732 -40 c-3 -10 -29 -4 -45 9 -9 7 -9 13 -1
22 9 10 16 8 30 -6 10 -10 17 -21 16 -25z m82 27 c0 -5 -4 -10 -10 -10 -5 0
-10 5 -10 10 0 6 5 10 10 10 6 0 10 -4 10 -10z m-696 -19 c4 -5 -1 -8 -9 -7
-21 3 -31 16 -12 16 9 0 18 -4 21 -9z m398 -44 c4 -21 1 -23 -21 -19 -23 5
-24 6 -6 13 11 4 16 8 12 8 -5 1 -5 6 -2 11 9 15 12 12 17 -13z m-192 -1 c0
-2 -7 -7 -16 -10 -8 -3 -12 -2 -9 4 6 10 25 14 25 6z m485 -76 c2 -12 1 -20
-2 -16 -4 4 -8 16 -10 28 -4 28 6 18 12 -12z m65 -89 c0 -11 -5 -23 -11 -26
-6 -4 -8 -13 -5 -21 8 -22 -9 -25 -22 -3 -8 12 -8 19 -2 19 6 0 8 10 4 25 -5
21 -3 25 15 25 14 0 21 -6 21 -19z m13 -41 c-3 -12 -8 -19 -11 -16 -5 6 5 36
12 36 2 0 2 -9 -1 -20z m275 -3 c8 -10 6 -13 -7 -13 -11 0 -17 6 -14 13 3 7 6
13 8 13 1 0 7 -6 13 -13z m-233 -167 c3 -5 1 -10 -4 -10 -6 0 -11 5 -11 10 0
6 2 10 4 10 3 0 8 -4 11 -10z m380 -59 c3 -5 2 -12 -3 -15 -5 -3 -9 1 -9 9 0
17 3 19 12 6z m112 -267 c-9 -9 -28 6 -21 18 4 6 10 6 17 -1 6 -6 8 -13 4 -17z
m61 -171 c-8 -9 -7 -13 2 -13 8 0 11 -2 8 -5 -3 -3 -13 -3 -22 1 -15 6 -15 7
1 21 17 14 17 14 1 9 -20 -6 -25 10 -5 17 17 6 28 -15 15 -30z m-258 -8 c-7
-8 -16 -12 -21 -9 -16 9 -10 20 12 21 17 2 18 -1 9 -12z m140 -25 c-20 -13
-33 -13 -25 0 3 6 14 10 23 10 15 0 15 -2 2 -10z m-70 -14 c0 -3 -4 -8 -10
-11 -5 -3 -10 -1 -10 4 0 6 5 11 10 11 6 0 10 -2 10 -4z m160 -31 c14 -19 14
-19 -2 -6 -16 12 -18 11 -19 -5 0 -11 -3 -14 -6 -6 -5 12 4 49 10 41 1 -2 9
-13 17 -24z m-180 -11 c0 -2 -7 -4 -15 -4 -8 0 -15 4 -15 10 0 5 7 7 15 4 8
-4 15 -8 15 -10z"/>
<path d="M2010 3161 c0 -4 11 -13 25 -19 19 -9 23 -9 19 2 -6 15 -44 29 -44
17z"/>
<path d="M1324 2757 c-2 -7 -3 -98 -2 -202 l3 -190 199 -3 c153 -2 201 1 208
10 13 22 10 372 -4 386 -18 18 -397 17 -404 -1z m354 -194 l-3 -148 -147 -3
-148 -3 0 151 0 150 150 0 151 0 -3 -147z"/>
<path d="M1835 2748 c-3 -13 -4 -104 -3 -203 l3 -180 205 0 205 0 3 180 c1 99
0 190 -3 203 -5 22 -6 22 -205 22 -199 0 -200 0 -205 -22z m353 -185 l-3 -148
-145 0 -145 0 -3 148 -3 147 151 0 151 0 -3 -147z"/>
<path d="M1332 2248 c-8 -8 -12 -68 -12 -204 0 -166 2 -193 16 -198 27 -10
364 -7 385 4 18 10 19 23 19 198 0 133 -4 192 -12 200 -8 8 -67 12 -198 12
-131 0 -190 -4 -198 -12z m346 -195 l-3 -148 -147 -3 -148 -3 0 151 0 150 150
0 151 0 -3 -147z"/>
<path d="M1842 2248 c-17 -17 -17 -379 0 -396 15 -15 360 -17 389 -2 18 10 19
23 19 198 0 133 -4 192 -12 200 -8 8 -67 12 -198 12 -131 0 -190 -4 -198 -12z
m346 -195 l-3 -148 -145 0 -145 0 -3 148 -3 147 151 0 151 0 -3 -147z"/>
<path d="M1055 1921 c-6 -11 13 -26 22 -17 4 3 1 6 -6 6 -7 0 -9 5 -6 10 3 6
4 10 1 10 -3 0 -7 -4 -11 -9z"/>
<path d="M2610 1489 c0 -5 5 -7 10 -4 6 3 10 8 10 11 0 2 -4 4 -10 4 -5 0 -10
-5 -10 -11z"/>
<path d="M2270 1010 c0 -5 5 -10 10 -10 6 0 10 5 10 10 0 6 -4 10 -10 10 -5 0
-10 -4 -10 -10z"/>
<path d="M2330 3400 c0 -5 5 -10 11 -10 5 0 7 5 4 10 -3 6 -8 10 -11 10 -2 0
-4 -4 -4 -10z"/>
<path d="M1046 3251 c-14 -15 -15 -21 -4 -27 7 -4 10 -3 5 1 -4 5 0 17 10 27
9 10 14 18 11 18 -3 0 -13 -9 -22 -19z"/>
<path d="M840 2979 c0 -5 5 -7 10 -4 6 3 10 8 10 11 0 2 -4 4 -10 4 -5 0 -10
-5 -10 -11z"/>
<path d="M2832 2926 c7 -8 15 -12 17 -11 5 6 -10 25 -20 25 -5 0 -4 -6 3 -14z"/>
<path d="M767 2893 c4 -11 3 -14 -5 -9 -7 4 -12 1 -12 -9 0 -19 16 -11 30 16
8 15 7 19 -4 19 -10 0 -13 -6 -9 -17z"/>
<path d="M670 2009 c0 -5 -4 -7 -10 -4 -6 3 -7 -1 -4 -9 9 -22 19 -20 21 4 1
11 0 20 -3 20 -2 0 -4 -5 -4 -11z"/>
<path d="M2918 1923 c7 -3 16 -2 19 1 4 3 -2 6 -13 5 -11 0 -14 -3 -6 -6z"/>
<path d="M744 1788 c-5 -7 -2 -8 6 -3 10 6 12 4 7 -8 -4 -11 -2 -14 9 -10 7 3
14 9 14 13 0 13 -29 20 -36 8z"/>
<path d="M855 1611 c-3 -5 -2 -12 3 -15 5 -3 9 1 9 9 0 17 -3 19 -12 6z"/>
<path d="M1075 1400 c-9 -14 3 -30 23 -30 15 0 15 2 2 10 -11 7 -11 10 -2 10
7 0 10 5 7 10 -3 6 -10 10 -15 10 -5 0 -12 -4 -15 -10z"/>
<path d="M2427 614 c-13 -14 -7 -23 11 -17 15 6 16 5 2 -12 -12 -15 -12 -17
-1 -10 10 6 13 4 9 -6 -3 -8 0 -23 7 -32 11 -15 12 -13 11 17 -1 35 -26 73
-39 60z"/>
<path d="M2890 391 c0 -5 7 -11 14 -14 10 -4 13 -1 9 9 -6 15 -23 19 -23 5z"/>
<path d="M2595 230 c3 -5 8 -10 11 -10 2 0 4 5 4 10 0 6 -5 10 -11 10 -5 0 -7
-4 -4 -10z"/>
</g>
</svg>
